<svg width="365" height="289" viewBox="0 0 365 289" fill="none" xmlns="http://www.w3.org/2000/svg">
<path d="M325.556 29.6696C323.457 30.5285 320.49 30.6204 318.179 30.4176C317.451 30.3569 317.61 29.3764 317.096 29.2948C316.098 29.1351 315.333 29.7628 314.322 29.5415C313.989 29.463 314.055 27.9455 313.712 27.8964C311.829 27.6396 310.254 28.3734 308.412 28.4741C299.351 28.9687 290.644 30.6473 281.772 32.5797C278.85 33.2163 274.976 33.0249 272.228 34.544C271.908 34.7224 272.515 35.8804 272.483 36.0027C271.981 37.8824 271.5 35.2992 270.727 35.1923C267.659 34.7774 264.681 35.6976 262.361 37.0889C261.37 37.6875 263.331 39.6902 261.763 38.7417C261.655 38.6786 261.442 37.2954 261.1 37.2681C260.324 37.2077 259.163 37.9151 258.615 38.0132C257.557 38.1946 257.407 38.269 256.473 38.6261C255.205 39.0987 253.444 39.0906 252.238 39.9467C251.979 40.1342 252.911 41.2619 252.553 41.6761C252.192 42.0906 250.979 42.4945 250.44 42.3747C249.905 42.2519 249.622 41.1696 249.447 40.9708C247.972 39.2911 247.843 42.6096 247.704 42.7577C247.263 43.194 246.808 43.5508 246.344 43.8497C243.892 45.4104 241.045 45.5282 238.547 46.8323C236.279 48.0206 234.148 49.8052 232.003 50.9252C229.45 52.2522 226.956 52.8352 224.637 54.4124C224.392 54.5775 225.551 55.8024 225.256 56.0058C222.123 58.165 218.906 60.0666 215.161 61.3387C214.785 61.465 214.352 59.9972 213.925 60.054C211.335 60.4108 206.537 60.4162 209.287 66.2694C207.887 67.0311 206.232 68.0127 204.327 67.9184C203.095 67.863 202.797 66.0701 202.336 67.3155C202.232 67.5946 203.363 68.4551 203.147 68.7885C202.245 70.1824 200.584 70.9926 199.865 72.5559C199.719 72.8784 200.595 73.7587 200.673 73.9868C201.285 75.8449 198.359 74.4386 198.003 74.465C195.358 74.6445 194.59 76.2031 193.126 77.5086C192.782 77.8155 194.314 78.6628 194.025 79.0008C192.495 80.7533 190.712 82.2691 188.584 83.331C188.112 83.5612 187.442 82.2305 187.164 82.2897C185.948 82.5694 187.672 84.6319 186.542 84.9461C186.306 85.0157 185.531 84.0742 185.408 84.0083C183.481 82.9792 185.218 85.4409 185.157 85.5961C184.425 87.6173 181.268 86.432 180.271 88.1159C180.153 88.3213 181.624 89.0022 181.224 89.5139C178.536 92.9667 175.194 96.0215 171.406 98.4764C170.826 98.851 170.271 97.7345 170.137 97.6719C168.014 96.7235 169.961 99.0203 169.903 99.2576C169.38 101.088 166.418 100.706 168.367 103.887C162.688 108.657 159.659 115.558 152.669 119.33C152.583 119.38 151.531 118.346 151.364 118.449C149.345 119.696 151.402 120.766 152.695 123.645C153.017 124.372 149.665 123.206 149.412 123.131C148.472 122.861 146.973 121.233 146.76 121.221C145.052 121.174 150.869 125.442 150.047 126.517C150.012 126.543 149.067 125.594 148.893 125.604C148.348 125.634 148.552 126.234 147.977 126.234C146.653 126.226 143.686 124.335 144.565 126.55C144.684 126.831 148.084 129.12 147.206 129.958C146.854 130.289 145.623 132.037 145.046 132.364C144.472 132.688 143.666 131.565 143.595 131.565C141.337 131.815 141.037 130.991 138.816 130.149C138.703 130.1 138.58 130.054 138.452 130.009C135.905 129.108 140.924 132.643 141.266 133.323C141.607 134.002 139.739 134.084 139.164 134.016C138.588 133.948 138.14 133.151 137.757 133.188C135.24 133.453 139.732 135.626 140.17 136.662C141.215 139.108 136.972 137.186 135.866 137.927C135.57 138.123 136.564 138.522 136.465 138.819C136.062 139.982 134.501 139.706 134.767 141.541C134.808 141.844 136.393 144.307 134.364 143.684C134.071 143.594 133.322 142.697 132.82 142.955C132.068 143.339 131.075 144.286 130.916 145.155C130.799 145.797 132.708 146.342 131.806 146.603C131.404 146.718 130.872 145.586 130.19 145.856C129.508 146.127 128.645 147.416 128.316 147.944C127.997 148.46 129.344 149.01 129.393 149.106C129.667 149.664 129.559 150.999 129.499 151.08C126.725 155.305 122.045 157.897 119.943 162.461C119.778 162.816 121.163 163.432 121.151 163.494C120.931 164.95 118.211 161.869 116.58 161.92C119.181 163.485 118.413 163.647 118.167 164.62C118.052 165.09 119.168 165.53 119.245 165.631C120.362 167.176 118.184 166.296 117.723 166.139C116.031 165.558 117.478 167.086 116.344 166.702C115.217 166.325 114.171 164.81 113.697 165.575C114.468 166.379 117.206 167.374 117.219 168.195C117.24 171.334 112.785 174.17 111.48 175.82C110.195 177.431 109.989 178.143 109.021 178.96C107.268 180.447 109.48 180.871 109.598 182.518C109.704 184.19 105.634 180.921 104.581 180.51C103.53 180.096 104.396 180.875 103.748 180.763C103.101 180.651 102.726 179.81 102.235 180.176C101.741 180.545 102.635 182.89 103.531 183.659C105.426 185.291 107.997 186.038 106.459 186.831C106.368 186.877 105.345 185.936 105.057 186.148C102.806 187.86 101.388 190.129 99.2697 191.92C98.978 192.163 97.8306 191.124 97.6458 191.257C95.7212 192.637 98.317 193.255 100.175 195.707C97.042 193.584 94.7064 193.006 93.8636 194.428C93.3575 195.28 94.8733 195.952 95.5665 197.081C95.7783 197.416 94.4427 197.472 95.0535 197.967C97.0483 199.587 99.8392 200.418 98.0203 201.333C97.9369 201.371 96.8468 200.481 96.6469 200.663C95.3479 201.84 97.5728 203.292 96.9666 205.027C96.495 206.381 93.8782 207.756 92.8658 209.044C89.168 206.959 89.2837 208.76 91.5544 210.704C90.9499 211.553 90.5472 212.631 89.7115 213.315C89.4247 213.552 88.4556 212.763 88.3182 212.737C86.1696 212.325 88.4523 214.085 88.4436 214.334C88.2208 217.007 85.3898 217.699 86.1279 220.765C86.1554 220.873 88.6843 222.395 86.4957 221.916C86.3461 221.881 85.5312 220.568 84.9204 221.479C84.3154 222.378 81.9298 223.467 82.4142 225.445C82.5309 225.92 84.1905 227.884 82.189 227.653C81.9181 227.62 81.2263 227.122 80.7438 227.025C79.2036 226.721 81.7038 228.362 79.2176 227.637C76.7317 226.911 74.5264 227.003 75.3281 229.187C75.3495 229.254 77.2519 230.701 76.9888 231.106C76.5675 231.753 75.614 232.475 75.2402 233.192C75.0625 233.534 76.4682 234.021 76.4596 234.092C75.9391 236.759 73.8999 237.757 72.0597 239.901C71.7192 240.294 72.7507 242.551 70.8893 242.635C68.8511 242.727 63.1205 238.234 63.4038 241.217C63.5163 242.41 70.8195 248.048 65.8142 247.252C65.0834 250.861 61.3626 252.393 60.9762 256.235C60.958 256.407 62.8713 258.165 62.6459 258.464C62.308 258.905 61.1353 258.535 60.8617 258.827C59.6886 260.036 59.7483 261.851 58.7542 263.107C58.379 263.584 57.4575 262.739 57.0101 263.305C56.9818 263.341 56.9597 263.379 56.9428 263.421C56.6902 264.049 57.6189 265.165 56.5267 265.566C55.6443 265.884 52.3922 264.884 51.5628 265.568C54.3929 267.209 54.0043 267.762 54.1804 269.221C54.2153 269.503 55.3294 269.843 55.3973 270.004C55.6953 270.675 54.6722 270.572 55.0236 271.252C55.1073 271.416 56.0789 271.967 56.2017 272.133C57.2828 273.571 54.4966 273.373 54.0186 273.32C52.1923 273.149 53.253 274.202 52.3787 274.373C51.5102 274.531 51.2801 273.354 50.5833 273.72C49.1498 274.467 48.3093 275.996 47.4009 277.04C47.0454 277.459 48.4376 278.109 48.4138 278.19C47.9337 279.383 45.9967 279.135 47.6329 281.701C41.6272 276.835 47.6612 282.763 45.2483 282.845C45.0537 282.848 42.5957 280.173 42.5891 279.473C42.5705 278.784 43.8625 279.139 43.7312 278.094C43.7188 277.835 41.814 274.903 41.7089 274.708C41.0209 273.072 45.2017 276.517 45.47 276.665C48.3121 278.298 46.1692 275.089 46.101 274.749C45.92 273.054 47.138 272.59 47.0181 271.218C46.9406 270.325 43.9267 268.435 44.2933 268.032C45.5139 266.664 50.1867 268.446 47.368 264.673C46.7735 263.858 43.1664 262.341 46.5934 262.482C46.8111 262.487 49.8074 262.871 48.6315 261.384C48.4833 261.196 47.5054 260.625 47.483 260.476C47.3562 259.481 48.4043 259.488 48.5072 258.508C48.5213 258.38 48.5346 258.247 48.5493 258.111C48.5622 258.094 48.594 258.038 48.6072 258.021C48.6337 257.234 48.6731 256.349 49.349 255.911C49.8148 255.607 51.9471 256.183 52.5154 256.25C54.1453 256.456 52.4728 254.528 54.2289 255.116C55.9979 255.701 57.8787 257.886 59.4841 257.518C57.0055 255.933 54.4891 254.26 52.0079 252.647C53.3959 250.599 55.4758 248.992 56.6375 246.769C56.7788 246.492 55.2554 245.961 55.3712 245.644C55.8646 244.311 57.4544 243.823 57.795 242.334C58.054 241.177 57.2124 239.275 57.4264 238.043C60.7108 239.078 60.5826 236.98 61.4736 236.015C61.7852 235.676 62.5557 236.14 62.9678 236.004C64.5039 235.476 61.6287 234.523 61.3804 234.007C60.3198 231.801 66.2669 234.962 66.9357 233.405C66.9733 233.323 64.3544 230.636 64.2294 230.399C63.407 228.868 65.4 230.863 65.9181 230.47C66.8647 229.751 67.9808 229.496 67.6728 227.864C67.5783 227.387 66.0378 225.537 67.9046 225.726C68.1493 225.75 69.1667 226.363 69.2644 226.329C70.9468 225.657 67.6884 223.845 66.9583 222.542C66.2246 221.247 69.0726 221.391 69.8446 221.523C71.8445 221.859 70.3266 222.355 70.4756 222.476C72.2481 223.908 72.3355 222.936 72.8297 222.421C76.0922 224.072 76.3584 223.118 73.3293 221.878C72.9977 221.744 73.0423 222.379 72.8297 222.421C69.9632 220.182 70.0613 219.034 73.5625 219.605C75.2042 219.871 76.5684 221.199 76.7706 219.416C76.8644 218.607 74.512 217.666 74.226 216.752C73.5654 214.682 76.5822 214.042 77.0031 212.492C77.1562 211.929 75.6813 211.757 75.7444 211.349C75.9089 210.264 77.2545 209.954 77.2919 208.779C77.2938 208.672 75.9163 208.185 76.0567 207.89C77.0776 205.67 78.932 204.21 80.1928 201.984C80.8086 200.893 81.191 198.57 81.9631 197.519C83.3048 195.671 86.4639 194.347 86.9828 192.412C87.3132 191.177 85.9278 190.695 85.3406 189.743C84.2015 187.899 88.0822 188.005 88.6638 188.056C88.6822 188.059 88.4341 189.166 89.3643 189.037C90.8676 189.52 88.6634 188.07 88.6638 188.056C89.042 188.083 90.3944 186.41 90.3748 185.899C90.3618 185.623 89.1168 185.044 89.1325 184.913C89.5472 181.785 90.7154 179.139 92.7783 176.959C92.8284 176.93 94.0971 177.786 94.1985 177.707C95.649 176.621 94.6219 174.714 94.4109 172.934C94.1896 171.173 95.0951 170.416 97.7621 171.097C98.0421 170.019 99.8298 169.35 100.882 169C101.938 168.645 99.4878 166.952 99.4789 166.856C99.1742 163.816 101.354 163.568 102.921 161.633C103.676 160.705 104.592 158.512 105.02 157.273C105.357 156.286 106.276 156.161 106.424 155.133C106.445 154.994 105.271 154.367 105.25 154.306C104.515 152.55 106.929 154.768 107.531 154.909C109.709 155.436 110.897 155.673 110.813 154.026C110.794 153.648 107.429 150.297 107.522 149.674C107.649 148.872 108.875 150.041 108.974 149.176C108.984 149.103 108.124 148.533 108.43 148.165C109.808 146.496 111.673 144.852 112.89 142.932C113.058 142.674 111.492 142.06 111.713 141.671C112.746 139.857 114.168 137.955 115.971 136.755C116.42 136.46 117.168 137.383 117.507 137.493C119.566 138.153 117.694 135.637 117.741 135.475C118.805 131.549 122.642 130.895 123.921 127.029C123.981 126.822 122.372 123.624 124.999 124.706C125.175 124.776 127.843 125.909 126.687 124.25C126.615 124.146 125.193 123.626 125.777 123.099C126.222 122.697 126.32 121.683 127.194 121.272L127.102 121.393C127.372 121.263 127.717 121.192 128.171 121.216C128.774 121.246 131.493 122.296 130.303 120.159C130.216 120.015 127.103 115.743 130.213 117.416C130.724 117.692 133.613 119.992 132.809 117.92C132.652 117.52 131.75 117.346 131.697 116.565C131.63 115.344 133.157 114.971 132.536 113.078C132.424 112.746 130.947 110.554 132.861 111.187C133.16 111.286 134.016 112.194 134.339 112.001C135.866 111.103 136.341 109.146 138.056 108.339C138.663 108.049 140.042 109.52 140.848 109.358C141.648 109.203 142.838 108.521 142.54 107.432C142.238 106.345 139.296 104.944 139.719 104.002C141.529 99.9449 145.685 97.7736 148.686 94.5914C149.127 94.1255 147.914 93.8053 148.501 93.0678C150.676 90.3167 153.851 84.989 157.686 84.3126C160.767 83.7541 159.818 87.0414 161.647 86.1676C162.521 85.7494 160.416 82.5676 160.476 82.3277C161.012 79.9681 163.256 79.9382 164.171 78.2129C164.362 77.8545 163.003 77.1185 163.179 76.8241C163.787 75.7886 165.117 75.3477 165.788 74.4642C166.087 74.0651 165.196 73.3432 165.574 73.074C166.464 72.4281 167.513 72.0321 169.023 72.0165C169.161 72.0153 169.723 73.4756 170.325 72.9337C171.291 72.0594 173.184 71.6459 173.485 69.8071C173.57 69.2603 171.746 67.3884 173.698 67.9967C174.109 68.1218 176.115 70.546 175.022 67.8231C174.838 67.3709 173.676 63.4029 175.982 64.4608C176.591 64.7366 178.803 66.1736 178.92 65.508C178.93 65.4101 177.749 64.5957 177.985 64.1838C178.842 62.7447 180.14 61.7456 181.071 60.3057C181.317 59.92 179.853 59.2875 180.254 58.7456C181.35 57.2567 183.295 56.0317 184.936 55.2196C185.54 54.9241 185.983 56.1299 186.104 56.1979C188.063 57.3214 186.529 54.8546 186.621 54.5567C187.189 52.7595 188.974 53.0315 189.87 51.8377C190.123 51.5081 189.035 50.6278 189.021 50.482C188.92 49.0249 189.987 51.3289 190.568 51.2067C192.2 50.873 193.397 49.7837 194.477 48.7259C194.87 48.3381 193.41 47.4589 193.776 47.1241C195.916 45.1255 198.484 43.4181 201.321 42.4865C201.855 42.3145 202.284 43.5089 202.536 43.673C204.278 44.8359 203.675 42.0095 203.749 41.6509C204.066 40.025 205.057 40.6604 205.805 39.9146C209.477 36.2259 215.247 33.5282 219.593 31.5759C225.269 29.0109 230.006 27.8603 235.044 25.0341C235.365 24.8562 234.315 23.5594 234.584 23.3868C235.054 23.0973 235.533 22.8257 236.019 22.567C239.347 20.8039 242.854 19.7191 246.086 17.9468C246.392 17.7823 245.343 16.5454 245.817 16.2326C246.786 15.5814 248.184 15.1127 249.43 15.1555C250.04 15.1724 249.82 16.679 250.422 16.672C251.83 16.6566 253.154 16.2717 254.329 15.5728C254.823 15.2741 253.473 14.0911 254.159 13.8182C258.836 11.9279 263.447 10.0853 268.835 10.5298C269.205 10.5606 270.448 13.531 270.955 12.7294C270.743 11.8634 270.43 10.8644 270.17 9.94883C276.907 7.32221 284.038 6.4871 290.998 4.88964C291.291 4.82205 290.367 3.30387 290.934 3.16444C294.222 2.3556 297.319 1.11958 301.066 1.98545C301.437 2.0694 301.94 5.02044 302.813 4.35635C302.962 4.23713 304.358 3.51141 304.596 2.79371C304.627 2.68656 304.051 1.38561 304.519 1.23908C307.256 0.409563 310.234 0.0971941 313.193 0.362282C313.667 0.408604 313.49 1.96126 313.829 2.00716C316.257 2.31676 318.48 0.730912 320.915 1.64757C322.521 2.27223 322.461 4.89621 323.682 7.24221C323.855 7.57283 324.75 7.46772 325.055 8.90762C325.826 12.527 326.128 16.5883 327 20.437C327.189 21.2656 328.158 20.1627 327.851 22.3025C327.829 22.4458 327.128 23.2643 327.049 23.9866C326.994 24.4859 327.517 25.9112 327.34 26.5697C327.166 27.2273 326.614 26.0536 326.276 26.8527C325.939 27.661 326.46 29.2942 325.556 29.6696ZM105.634 167.382C107.264 167.486 102.92 164.564 103.512 165.963C103.546 166.033 105.553 167.379 105.634 167.382ZM58.8502 251.027C61.3567 251.335 58.7946 248.999 56.8966 248.703C55.0034 248.401 58.0911 250.932 58.8502 251.027ZM54.7125 260.897C56.8924 260.87 50.7334 256.724 51.3182 258.592C51.3502 258.699 54.5859 260.898 54.7125 260.897ZM320.292 8.61059C320.314 8.67704 320.963 8.62196 320.966 8.5513C320.995 6.85332 319.693 6.96536 320.292 8.61059ZM50.8587 271.157C51.915 271.34 51.4391 269.832 50.1255 269.616C49.073 269.438 49.5519 270.919 50.8587 271.157ZM133.796 136.429C133.866 136.466 134.199 136.136 133.839 135.88C132.681 135.057 132.617 135.815 133.796 136.429ZM39.4288 283.633C41.5907 282.62 46.7869 286.348 43.7053 287.686C43.1673 287.899 43.6206 285.377 42.7096 285.331C41.1411 285.184 42.4013 288.93 40.1866 287.811C39.8303 287.583 39.3214 283.674 39.4281 283.623C39.4284 283.627 39.4285 283.63 39.4288 283.633ZM111.175 170.387C111.242 170.411 111.636 169.917 111.587 169.867C110.372 168.682 109.575 169.68 111.175 170.387ZM152.574 117.134C152.712 117.196 153.741 116.116 153.663 115.996C152.015 113.699 149.921 115.887 152.574 117.134ZM92.7545 209.011C93.8829 210.425 93.66 211.236 91.5578 210.702C91.9838 210.159 92.3306 209.565 92.7545 209.011Z" fill="#F7F7EF"/>
<path d="M49.1581 266.563C48.2692 264.893 48.1427 262.411 48.3362 260.469C48.3928 259.853 49.3637 259.905 49.445 259.477C49.6033 258.642 48.977 258.033 49.2024 257.186C49.2813 256.903 50.7832 256.843 50.8331 256.555C51.0937 254.965 50.3821 253.712 50.308 252.189C49.9456 244.689 48.6087 237.536 47.3 230.168C46.8654 227.732 47.3643 224.503 46.1253 222.203C45.9797 221.936 44.7833 222.449 44.6658 222.423C42.862 222.003 45.4502 221.594 45.6296 220.944C46.3355 218.37 45.7655 215.875 44.6913 213.882C44.2307 213.036 42.0175 214.633 43.1472 213.335C43.223 213.245 44.6063 213.106 44.6774 212.818C44.8356 212.164 44.3008 211.165 44.2825 210.699C44.2542 209.801 44.2011 209.663 43.9924 208.865C43.7184 207.771 44.0071 206.291 43.3779 205.211C43.2397 204.982 41.9826 205.695 41.6401 205.364C41.298 205.032 41.1137 203.95 41.3312 203.506C41.5488 203.061 42.653 202.909 42.8783 202.777C44.7844 201.676 41.5936 201.272 41.4788 201.137C39.4661 198.634 40.3806 195.729 39.5996 193.06C39.3565 192.235 39.0189 191.413 38.6709 190.598C38.1365 189.317 37.6073 188.046 37.3354 186.814C36.7952 184.339 37.0686 182.131 36.4066 179.944C36.3384 179.713 34.7996 180.373 34.7135 180.095C34.1438 178.252 33.7236 176.516 33.513 174.8C33.3849 173.76 33.3202 172.672 33.3929 171.722C33.4136 171.471 34.8694 171.204 34.9642 170.907C35.1143 170.479 35.2731 169.885 35.5653 169.729C35.6605 169.712 35.7177 169.699 36.0541 169.966C36.2233 170.073 36.436 170.328 37.2503 170.718C37.7369 170.924 38.2958 171.153 39.369 171.099C40.3984 171.038 41.3457 170.52 41.8292 170.075C43.4661 168.237 42.8335 168.206 42.9713 168.003C42.9619 167.863 42.9296 167.878 42.9182 167.915C42.8025 168.433 43.7407 169.55 46.9223 169.734C46.8403 170.341 46.7737 171.008 46.5731 171.752C46.3884 172.375 46.0941 173.045 45.5667 173.658C44.8498 174.495 43.1899 173.982 43.9779 174.8C44.1545 174.987 45.4886 174.533 45.65 174.828C46.3237 176.033 46.0834 177.506 46.9846 178.69C47.1702 178.923 48.3847 178.668 48.6163 178.707C50.495 179.047 47.703 180.534 47.5243 180.794C46.1945 182.762 47.03 183.935 47.2553 185.54C47.3075 185.916 48.8761 185.202 48.9854 185.553C49.5286 187.369 49.7159 189.316 49.3064 191.267C49.211 191.699 47.7497 191.572 47.6327 191.791C47.1346 192.758 49.8065 192.492 49.3806 193.405C49.2944 193.599 48.0822 193.713 47.9565 193.768C45.9838 194.627 48.9798 194.54 49.0668 194.655C50.2329 196.096 47.3739 197.677 48.0899 199.152C48.1786 199.327 49.6121 198.632 49.7691 199.141C50.8245 202.538 51.105 206.271 50.5776 209.942C50.4974 210.511 49.2907 210.355 49.1578 210.416C47.0859 211.393 50.0773 211.171 50.2219 211.323C51.2857 212.533 49.098 214.307 52.7639 214.532C52.7555 216.977 53.2796 219.311 53.7902 221.617C54.5553 225.024 55.2038 228.237 54.4656 231.717C54.4539 231.791 53.0376 232.189 53.022 232.339C52.8505 234.165 54.907 233.107 57.7276 232.532C58.4033 232.327 55.7654 234.473 55.6242 234.703C54.9827 235.381 53.0358 236.391 52.9324 236.554C52.2628 238.023 58.0625 233.708 58.1858 233.834C58.1864 233.852 57.1933 234.735 57.1221 234.851C56.9178 235.236 57.3583 234.926 57.1421 235.341C56.5882 236.258 55.008 239.46 56.6648 238C56.8415 237.787 58.5049 234.057 58.5593 234.277C58.5717 234.383 59.1918 234.425 59.4932 234.687C59.7558 234.958 59.5504 236.272 59.5628 236.33C60.5238 238.07 60.1992 238.792 61.0097 241.33C61.9511 243.831 61.1537 237.74 61.2953 237.037C61.4332 236.339 62.4316 237.644 62.7676 238.089C63.0675 238.543 62.9471 239.416 63.1931 239.659C64.9039 241.212 63.1824 236.559 63.3725 235.526C63.6759 233.665 64.7397 235.678 65.7825 236.8L65.44 236.918C65.8129 237.224 66.1562 237.449 66.4154 237.455C66.7082 237.461 66.1024 236.593 66.2829 236.411C67.0014 235.703 68.0815 236.785 68.5474 235.167C68.6248 234.902 68.329 232.051 69.6396 233.669C69.8276 233.903 70.0731 235.033 70.542 235.106C71.2434 235.216 72.3304 235.011 72.768 234.404C73.0904 233.955 71.8384 232.466 72.6192 232.756C72.9669 232.885 72.9575 234.084 73.5747 234.244C74.19 234.405 75.3328 233.844 75.7581 233.612C76.1827 233.38 75.363 232.195 75.3597 232.092C75.3522 231.496 75.9158 230.494 75.9906 230.462C79.6631 228.62 84.1191 229.19 87.4195 226.755C87.6785 226.566 86.8495 225.305 86.8824 225.262C87.5859 224.236 88.5211 228.189 89.7734 229.067C88.3734 226.375 89.0108 226.68 89.5563 226.051C89.8175 225.746 89.131 224.773 89.1095 224.65C88.8302 222.807 90.1641 224.722 90.4561 225.105C91.5303 226.512 90.9963 224.496 91.7185 225.434C92.4377 226.364 92.669 228.145 93.3177 227.808C93.0305 226.742 91.3119 224.422 91.6103 223.767C92.7373 221.296 97.2004 221.588 98.8117 221.045C100.421 220.504 100.808 220.086 101.86 219.999C103.761 219.839 102.237 218.249 102.779 216.898C103.32 215.546 105.181 220.406 105.823 221.329C106.463 222.252 106.1 221.152 106.549 221.61C106.999 222.068 106.965 222.933 107.477 222.932C107.99 222.929 108.203 220.6 107.816 219.491C106.998 217.14 105.329 215.087 106.802 215.356C106.888 215.372 107.308 216.687 107.606 216.689C109.956 216.665 111.923 215.724 114.205 215.581C114.519 215.564 114.991 217.026 115.182 217.031C117.19 217.076 115.452 215.102 114.984 212.146C116.546 215.589 118.082 217.393 119.273 216.792C119.992 216.431 119.101 215.036 119.017 213.767C118.99 213.385 120.018 214.123 119.746 213.39C118.859 210.991 117.063 208.732 118.795 209.093C118.874 209.112 119.354 210.428 119.577 210.405C121.023 210.261 119.918 207.845 121.035 206.886C121.926 206.125 124.445 206.609 125.718 206.222C127.707 209.971 128.323 208.535 127.36 205.728C128.161 205.432 128.879 204.854 129.779 204.825C130.088 204.814 130.515 205.981 130.609 206.081C132.071 207.657 131.042 204.975 131.146 204.792C132.347 202.901 134.794 204.021 135.41 201.276C135.432 201.177 134.106 198.542 135.584 200.185C135.684 200.3 135.787 201.774 136.612 201.439C137.43 201.107 139.656 201.684 140.061 199.898C140.157 199.469 139.652 197.012 141.089 198.354C141.282 198.537 141.616 199.319 141.945 199.674C143.001 200.803 141.733 198.099 143.344 200.1C144.947 202.106 146.688 203.307 146.912 201.183C146.921 201.12 146.026 198.915 146.379 198.761C146.96 198.508 147.971 198.508 148.523 198.182C148.787 198.025 147.901 196.84 147.934 196.791C149.365 195.051 151.292 195.472 153.518 194.879C153.939 194.766 153.96 192.464 155.444 193.446C156.946 194.464 159.439 200.414 160.478 199.158L159.751 199.508C159.825 199.434 159.896 199.326 159.964 199.18C160.356 198.281 158.058 189.37 161.079 193.303C163.307 191.239 166.557 192.715 168.693 190.223C168.791 190.112 168.352 187.569 168.644 187.506C169.079 187.418 169.695 188.467 170.018 188.439C171.39 188.348 172.193 186.987 173.44 186.704C173.913 186.593 174.176 187.809 174.747 187.673C175.315 187.535 175.105 185.882 176.111 186.335C176.871 186.682 178.643 189.551 179.552 189.6C178.356 186.555 178.886 186.416 179.438 185.246C179.542 185.02 178.917 184.048 178.943 183.887C179.032 183.212 179.702 183.951 179.751 183.233C179.764 183.06 179.319 182.035 179.302 181.836C179.134 180.115 180.981 182.034 181.315 182.361C182.565 183.612 182.21 182.172 182.909 182.561C183.617 182.944 183.34 183.989 184.013 184.102C185.421 184.33 186.679 183.472 187.742 182.936C188.162 182.717 187.15 181.574 187.193 181.513C187.835 180.721 189.498 181.575 188.402 178.763C192.991 184.955 188.506 177.833 190.438 178.412C190.592 178.46 192.713 181.413 192.638 182.099C192.562 182.784 191.391 182.184 191.317 183.205C191.309 183.441 192.337 186.795 192.332 187.036C192.339 188.903 189.512 184.262 189.329 184.025C187.289 181.488 188.23 185.155 188.099 185.513C187.574 187.115 186.29 186.91 185.737 188.101C185.372 188.872 186.83 192.115 186.283 192.251C184.444 192.707 181.951 188.381 182.09 192.988C182.113 193.97 183.918 197.434 181.552 195.096C181.396 194.952 179.492 192.702 179.625 194.545C179.642 194.778 180.052 195.833 180.001 195.955C179.65 196.75 178.945 196.052 178.478 196.688C178.01 197.323 177.482 198.201 176.647 198.092C176.143 198.028 174.905 196.227 174.536 195.809C173.485 194.6 173.688 197.112 172.755 195.527C171.823 193.932 171.597 191.102 170.326 190.3C171.245 193.096 172.143 195.98 173.044 198.799C171.01 199.383 168.793 199.117 166.951 199.889C166.723 199.988 167.477 201.401 167.248 201.545C166.291 202.142 165.017 201.396 164.139 202.197C163.459 202.824 163.216 204.709 162.616 205.405C162.236 204.756 161.904 204.326 161.606 204.05L162.865 203.445C161.636 202.644 161.014 203.725 160.19 203.911C159.822 203.994 159.405 203.197 159.035 203.067C157.648 202.599 159.5 204.973 159.492 205.514C159.439 207.832 156.098 201.985 154.973 202.804C154.909 202.847 155.891 206.41 155.895 206.664C155.933 208.312 155.175 205.635 154.623 205.639C153.611 205.65 152.654 205.202 152.263 206.624C152.153 207.042 152.591 209.359 151.241 208.13C151.064 207.969 150.523 206.912 150.436 206.882C148.893 206.415 150.676 209.689 150.721 211.108C150.758 212.532 148.653 210.758 148.112 210.21C146.715 208.79 148.07 209.295 148.003 209.117C147.209 206.995 146.764 207.683 146.183 207.789C144.34 204.631 143.761 205.203 145.587 207.911C145.788 208.206 146.004 207.697 146.183 207.789C147.49 211.165 146.968 211.98 144.52 209.503C143.372 208.343 142.857 206.536 141.996 207.777C141.615 208.333 143.035 210.424 142.897 211.283C142.575 213.248 140.044 211.961 139.108 212.895C138.766 213.236 139.824 214.227 139.612 214.502C139.049 215.236 137.923 214.674 137.434 215.543C137.391 215.623 138.245 216.8 138.024 216.942C136.36 218.039 134.395 218.054 132.569 219.009C131.675 219.478 130.486 221.019 129.489 221.37C127.775 221.981 124.831 221.169 123.721 222.331C122.986 223.087 123.852 224.261 123.928 225.332C124.072 227.409 121.195 225.063 120.774 224.686C120.761 224.674 121.367 223.973 120.616 223.53C119.664 222.286 120.779 224.676 120.774 224.686C120.501 224.444 118.816 224.953 118.644 225.353C118.549 225.572 119.271 226.737 119.209 226.829C117.723 228.978 115.816 230.35 113.437 230.844C113.388 230.838 112.75 229.448 112.643 229.451C111.13 229.458 111.192 231.523 110.696 233.016C110.196 234.511 109.224 234.582 107.459 232.53C106.854 233.202 105.251 232.703 104.313 232.382C103.375 232.062 104.607 234.771 104.578 234.851C103.698 237.385 101.936 236.352 100.039 236.98C99.1306 237.276 97.6271 238.48 96.843 239.216C96.2249 239.802 95.4802 239.385 94.9982 240.108C94.9326 240.205 95.5934 241.358 95.5874 241.417C95.5136 243.207 94.4872 240.109 94.0842 239.66C92.6199 238.025 91.7977 237.175 91.2552 238.524C91.1302 238.834 92.4613 243.361 92.1683 243.799C91.7844 244.36 91.2775 242.752 90.8934 243.378C90.8598 243.43 91.3054 244.361 90.9423 244.479C89.2583 245.045 87.2738 245.297 85.6478 246.15C85.425 246.262 86.3932 247.619 86.0816 247.807C84.619 248.684 82.8874 249.395 81.0666 249.364C80.6157 249.352 80.3851 248.202 80.1666 247.927C78.8396 246.264 79.3451 249.309 79.2504 249.412C77.1966 251.783 74.2586 250.57 71.9751 252.355C71.6102 252.466 70.5652 252.912 70.1886 252.973C69.9636 253.088 69.7389 253.217 69.5138 253.362C69.3737 253.482 68.3924 257.025 66.9933 254.499C66.8771 254.336 65.6094 251.727 65.2166 253.742C65.1853 253.869 65.9767 255.207 64.9988 255.217C64.0922 255.217 62.4199 256.404 60.7376 254.863C60.1311 254.375 59.1432 251.623 57.296 253.694C57.3761 253.904 53.2075 258.403 52.7291 254.575C52.6623 253.928 54.0245 250.614 51.0353 251.454C50.4225 251.582 50.9721 252.744 49.4699 252.612C47.063 252.349 45.1752 249.829 42.2881 249.148C41.8027 249.089 38.5147 249.16 39.2451 246.884C39.3684 246.542 40.581 246.127 40.321 245.514C39.1313 242.608 37.4243 240.699 37.4711 238.463C37.504 237.699 39.4939 237.337 39.7654 236.514C40.0344 235.687 40.1433 234.35 39.0939 234.01C38.0384 233.654 35.187 235.22 34.6718 234.354C33.052 231.568 33.2087 228.801 33.2172 226.164C33.2268 225.181 33.2117 224.187 33.0827 223.224C33.0126 222.7 31.9922 223.365 31.8126 222.623C31.1397 219.877 29.1387 215.341 31.0481 212.506C32.5765 210.24 34.4865 212.343 34.9772 210.746C35.2095 209.974 31.4401 209.925 31.293 209.775C29.816 208.345 31.2058 206.893 30.4345 205.501C30.2748 205.213 28.8601 205.789 28.7404 205.541C28.3183 204.695 28.8012 203.634 28.5243 202.802C28.3967 202.43 27.2854 202.707 27.3077 202.338C27.3475 201.455 27.6855 200.627 28.5911 199.611C28.6737 199.519 30.1639 199.773 30.1037 199.139C30.0027 198.117 30.8206 196.682 29.5417 195.708C29.1579 195.42 26.5819 195.854 28.2301 194.805C28.5744 194.585 31.6988 194.246 28.8783 193.843C28.4096 193.777 24.5551 192.934 26.7568 191.823C27.3365 191.532 29.7854 190.622 29.3174 190.271C29.2445 190.225 27.8989 190.685 27.7058 190.362C27.0511 189.228 26.9855 187.913 26.3485 186.726C26.176 186.412 24.8228 187.14 24.6117 186.664C24.0243 185.327 24.1174 183.533 24.3608 182.097C24.4524 181.561 25.6949 181.735 25.8187 181.679C27.8339 180.763 24.9414 180.843 24.7468 180.671C23.5714 179.569 24.7759 178.447 24.2646 177.319C24.1274 177.007 22.7997 177.417 22.67 177.369C21.3984 176.855 23.9036 177.034 24.1178 176.579C24.4731 175.798 24.525 175.013 24.4475 174.243C24.3887 173.663 24.2726 173.14 24.1466 172.57C24.0347 172.081 22.504 172.787 22.4221 172.339C22.1895 170.776 21.9248 169.929 22.2436 166.211C22.3124 165.61 22.3731 165.054 22.6133 163.911C22.7234 163.419 22.897 162.658 23.2592 161.623C23.5707 160.797 24.2072 158.892 26.0707 156.532C27.3294 154.956 29.3048 153.066 32.2208 151.737C35.4254 150.175 39.8483 149.97 42.3877 150.578C44.9489 151.088 46.9564 152.168 48.0008 152.839C49.0387 153.502 49.7872 154.127 50.3869 154.681C52.3658 156.599 52.7385 157.426 53.2386 158.185C54.6588 160.715 54.6495 161.46 54.8772 162.484C54.9837 163.181 53.6857 163.244 53.4803 163.479C52.0072 165.04 54.8659 165.123 55.1966 165.299C56.6778 166.029 55.7815 166.78 56.2636 167.642C56.2852 167.68 56.3067 167.719 56.328 167.758C58.6807 172.117 58.9624 177.01 59.3303 180.183C59.5071 181.733 59.5858 183.116 59.6993 184.448C60.0028 187.141 60.3195 189.674 61.2951 192.367C61.391 192.636 62.8753 191.909 62.9781 192.136C64.2341 195.082 64.4805 198.265 65.7988 201.199C65.9043 201.441 67.2864 200.659 67.5055 201.033C67.9655 201.797 68.1805 202.869 67.942 203.84C67.8284 204.313 66.3999 204.124 66.3115 204.592C66.1022 205.681 66.2843 206.738 66.7971 207.653C67.0185 208.042 68.3619 206.987 68.5313 207.525C69.7172 211.187 70.9878 214.76 70.0437 219.045C69.9789 219.34 66.948 220.413 67.6906 220.797C68.5603 220.603 69.5695 220.325 70.4919 220.092C72.4607 225.348 72.8329 230.997 74.1057 236.46C74.1594 236.689 75.6974 235.86 75.8097 236.301C76.4672 238.877 77.5801 241.254 76.632 244.307C76.5404 244.61 73.6137 245.233 74.2505 245.883C74.3647 245.994 75.0524 247.054 75.7583 247.191C75.8636 247.207 77.1592 246.645 77.2955 247.008C78.0634 249.123 78.3392 251.471 78.0684 253.858C78.0212 254.241 76.487 254.237 76.4408 254.513C76.1289 256.482 77.7064 258.112 76.8248 260.145C76.225 261.49 73.6286 261.694 71.3266 262.912C71.0022 263.085 71.1209 263.796 69.7019 264.185C66.1349 265.168 62.1214 265.812 58.3293 266.899C57.5129 267.135 58.6257 267.822 56.5007 267.779C56.3584 267.776 55.5327 267.277 54.8158 267.279C54.3201 267.281 52.9201 267.849 52.2639 267.764C51.6088 267.681 52.7582 267.107 51.9618 266.907C51.155 266.701 49.5473 267.286 49.1581 266.563ZM100.116 230.942C98.9106 229.942 101.125 234.686 101.202 233.253C101.203 233.179 100.177 230.991 100.116 230.942ZM167.559 195.373C166.035 193.452 166.599 196.847 167.721 198.348C168.836 199.85 168.022 195.955 167.559 195.373ZM175.26 190.932C173.714 189.556 176.061 196.6 176.582 194.815C176.613 194.714 175.351 191.011 175.26 190.932ZM69.9324 260.31C69.8675 260.337 69.9253 260.844 69.9963 260.844C71.6753 260.704 71.555 259.675 69.9324 260.31ZM182.713 185.922C182.014 185.14 181.678 186.56 182.539 187.542C183.242 188.33 183.593 186.892 182.713 185.922ZM67.4392 239.796C67.3994 239.728 67.0316 239.808 67.2105 240.211C67.7881 241.509 68.1068 240.938 67.4392 239.796ZM195.53 178.236C193.534 179.381 189.064 174.994 191.239 174.3C191.641 174.163 191.68 176.394 192.421 176.541C193.816 176.775 191.988 173.332 194.011 174.366C194.398 174.545 195.663 178.176 195.532 178.245C195.531 178.242 195.53 178.239 195.53 178.236ZM97.0193 225.459C96.9775 225.402 96.4881 225.569 96.5071 225.636C96.9867 227.251 97.9752 226.916 97.0193 225.459ZM52.7077 231.017C52.8344 230.941 52.6388 229.847 52.4988 229.842C49.71 230.022 50.1488 232.408 52.7077 231.017ZM125.789 206.312C125.486 204.576 125.972 204.09 127.357 205.728C126.822 205.89 126.327 206.139 125.789 206.312Z" fill="#F7F7EF"/>
</svg>
